PathFileType	4	(X/Y/Z)	C:\Users\WrightLab\Desktop\Jo\P1.2Trial8.trc
DataRate	CameraRate	NumFrames	NumMarkers	Units	OrigDataRate	OrigDataStartFrame	OrigNumFrames
100.00	100.00	       18	19	mm	100.00	592	       946
Frame#	Time	Headset_Front			Headset_Back			Headset_Left			Headset_Right			Left_Shoulder			Right_Shoulder			Sternum			C7			Left Elbow			Right Elbow			Left Wrist			Right Wrist			Left ASIS			Right ASIS			S2			Left Knee			Right Knee			Left Ankle			Right Ankle			
		X1	Y1	Z1	X2	Y2	Z2	X3	Y3	Z3	X4	Y4	Z4	X5	Y5	Z5	X6	Y6	Z6	X7	Y7	Z7	X8	Y8	Z8	X9	Y9	Z9	X10	Y10	Z10	X11	Y11	Z11	X12	Y12	Z12	X13	Y13	Z13	X14	Y14	Z14	X15	Y15	Z15	X16	Y16	Z16	X17	Y17	Z17	X18	Y18	Z18	X19	Y19	Z19	

592	5.910	-367.64288	1301.62744	-219.47566	-410.41812	1511.05310	1.84639	-504.48047	1411.29248	-101.74924	-278.11624	1374.64624	-122.26416	-618.13519	1239.30212	-17.04725	-204.79930	1231.71594	28.62194	-407.23962	1149.71167	-87.40417	-421.55914	1312.59070	122.55701	-675.16290	962.93158	-76.28264	-122.03036	992.09778	100.62431	-450.16458	931.84460	249.86929	-60.48127	738.62323	33.33688	-571.76257	844.06207	-39.19081	-291.60693	818.96674	-15.18117	-591.19562	879.07520	-292.60071	-654.63202	437.95621	-8.08277	-242.80664	410.34061	49.14651	-778.14282	134.98340	32.51357	-205.32774	101.69210	161.82797	
593	5.920	-373.51581	1302.73352	-222.00490	-416.25635	1510.15320	1.37745	-510.47763	1411.33594	-103.67941	-284.07788	1374.30811	-124.04841	-624.92316	1238.09753	-18.85118	-211.15170	1230.62256	25.97679	-413.54517	1149.09216	-89.87954	-428.01639	1311.24329	119.99341	-683.52777	961.14673	-76.16991	-128.35648	991.41064	98.08163	-456.11786	930.48633	246.90555	-66.09373	738.09161	30.07368	-576.19617	843.57037	-44.09657	-297.21933	817.94885	-17.77550	-602.62573	874.97357	-292.23920	-658.51471	436.14243	-12.20781	-246.72614	410.25851	47.12448	-781.01550	132.82870	28.27860	-204.86429	102.68093	162.08308	
594	5.930	-379.64197	1303.32373	-223.85683	-422.52545	1509.49121	0.70961	-516.80310	1411.62476	-105.62923	-290.61322	1374.00623	-126.14419	-631.71063	1236.95129	-20.94730	-217.96953	1229.23560	23.40174	-420.15195	1148.17139	-93.13300	-434.84836	1310.15637	118.16394	-691.43781	959.10803	-75.39439	-134.27885	990.28589	95.69424	-462.56766	928.85254	244.07742	-71.47248	737.49792	26.84572				-303.02145	817.86847	-21.34926	-614.11279	871.10126	-292.62866	-662.08612	433.81125	-17.07001	-250.11287	409.77887	44.44273	-783.47101	129.98830	25.52151	-204.83957	103.04004	162.28929	
595	5.940	-386.27426	1304.37244	-226.35928	-428.80106	1508.71667	-0.36069	-522.92993	1411.98840	-107.47792	-296.69394	1373.43848	-127.22019	-639.37250	1235.54395	-23.04550	-225.06891	1228.87573	20.36642	-427.04636	1148.00537	-95.58195	-441.91772	1309.09814	115.45947	-699.25806	957.34290	-75.53223	-140.85310	989.37311	92.96059	-469.05328	927.12817	241.17384	-77.58167	737.30835	23.40067	-590.23669	840.88092	-49.06421	-308.27197	819.17377	-25.96864	-625.92053	866.30676	-291.09329	-666.51398	433.34073	-23.44886	-253.88695	409.23257	41.98898	-785.76355	127.40098	22.93056	-206.15417	103.13572	161.63301	
596	5.950	-392.52756	1304.98083	-228.40202	-435.58807	1507.59558	-0.44174	-529.49689	1412.26489	-109.24039	-303.41739	1373.31006	-128.12439	-646.84985	1234.09656	-24.48252	-231.78363	1228.41455	17.91206	-434.57440	1147.38440	-98.92317	-448.76053	1307.40649	113.02347	-708.53174	955.98145	-75.48773	-149.23470	987.85645	90.46646	-475.59506	925.45374	237.88995	-83.78555	736.31055	20.84041	-596.56238	839.60675	-52.98801	-315.34705	816.61200	-27.72086	-638.13647	861.82178	-290.93375	-670.02966	430.81180	-28.49194	-257.67847	408.72943	40.25608	-787.69568	123.89983	22.46132	-205.98630	104.15515	160.99586	
597	5.960	-399.27365	1305.70251	-230.76138	-442.54651	1506.72729	-1.30312	-536.46246	1412.17590	-111.13989	-309.84805	1372.76685	-128.95999	-654.42664	1232.86414	-26.49520	-239.37668	1226.26001	16.15403	-442.02527	1146.52246	-101.74185	-455.75418	1305.98145	111.23792	-716.95398	953.96423	-75.60307	-155.21938	987.23700	88.27582	-482.44379	923.30884	234.46136	-89.99927	735.57513	18.14092	-603.90460	838.16290	-56.71569	-322.04294	817.10138	-32.00803	-650.31152	857.58386	-290.40845	-674.11676	429.23886	-35.82829	-261.64725	408.13306	37.26232	-789.59491	120.33592	22.89955	-204.57175	106.35926	160.62239	
598	5.970	-405.81000	1306.22253	-232.46701	-449.18094	1506.15552	-1.84985	-543.49951	1412.56458	-113.10458	-317.04529	1372.38196	-131.27356	-662.48700	1231.47205	-28.81107	-247.22356	1225.54504	14.23255	-449.03125	1145.76550	-104.11573	-464.22177	1304.02747	108.86735	-725.54559	952.14514	-75.78975	-162.20923	986.66870	85.52418	-489.66541	921.88745	231.17784	-96.92808	734.99341	15.66273				-328.68106	815.75787	-34.53150	-662.97003	852.89594	-289.58167	-677.46619	427.15900	-41.37591	-266.02029	406.97266	34.69394	-792.86835	117.65634	22.84977	-204.69164	107.12431	160.92738	
599	5.980	-412.29556	1307.00732	-234.45609	-456.68301	1504.88232	-2.45043	-550.20685	1412.74011	-114.94241	-324.37338	1371.83154	-131.38907	-670.79395	1229.88354	-30.38346	-254.28117	1224.60242	12.70000	-457.42673	1145.58496	-107.21674	-472.00674	1302.95825	106.81363	-734.38574	950.28589	-75.79077	-170.67715	985.86206	83.38573	-497.14645	919.34161	227.64427	-103.68379	734.24371	13.08031	-617.15991	834.70221	-64.62931	-335.61667	814.93079	-38.40648	-675.52246	848.47821	-288.95712	-682.04285	425.95877	-48.45148	-270.20834	406.89465	31.48694	-796.44794	115.50613	21.77218	-203.22264	109.09843	160.93484	
600	5.990	-419.31519	1308.19946	-237.18408	-464.17337	1505.00562	-3.95952	-557.07220	1413.40063	-117.40981	-331.04117	1371.53918	-132.21011	-678.99133	1228.62317	-32.40590	-263.31927	1223.47693	8.82601	-465.14728	1143.86511	-110.06156	-480.12033	1301.55042	103.54318	-743.19580	948.35321	-75.93787	-178.66254	984.93036	80.76741	-504.80573	917.32916	223.58105	-110.87426	733.32629	10.18980	-624.10052	832.95709	-69.27171	-343.15952	813.66870	-41.84619	-688.61823	843.73010	-288.38156	-686.01361	424.07574	-54.25260	-273.98172	406.64359	28.12765	-799.98364	113.79701	19.15689	-203.79150	110.88813	160.08569	
601	6.000	-426.02451	1308.54907	-239.19881	-471.71094	1504.78052	-5.90923	-564.68811	1413.59973	-119.57093	-338.24695	1370.70093	-133.07111	-688.04602	1226.99646	-33.82640	-271.39349	1223.72314	6.16330	-473.66324	1143.60608	-113.41710	-488.87497	1300.52856	100.47186	-751.92627	946.17212	-75.88992	-186.78531	984.23297	77.43647	-513.30609	915.10754	219.71385	-118.14390	732.60748	7.93076	-631.29260	832.34076	-72.75400	-349.09512	814.48163	-47.51175	-701.84058	838.68890	-287.38199	-691.07080	423.46860	-60.78246	-279.41357	406.81961	24.33609	-803.14288	112.00373	15.72410	-203.84077	111.53267	159.35588	
602	6.010	-432.93884	1309.29199	-241.57275	-479.20947	1503.75281	-6.35417	-571.89655	1414.71350	-122.24247	-345.50812	1371.02710	-135.04927	-696.65588	1225.57068	-36.21181	-279.53131	1221.93909	2.82388	-482.55795	1143.07202	-116.64758	-497.51840	1299.64795	98.33628	-761.46167	944.51208	-76.22187	-195.30620	983.06366	76.36922	-521.59167	913.54401	215.20695	-125.85029	732.03601	5.02380	-638.90887	831.80792	-79.00228	-357.40002	813.53241	-50.20525	-715.24353	833.96948	-287.21628	-696.44202	422.53952	-66.37540	-284.50171	406.31323	19.37055	-805.85278	109.89802	12.06536	-204.85332	113.53268	157.79861	
603	6.020	-439.77914	1310.85010	-244.01060	-487.24649	1501.89063	-8.57768	-579.08264	1415.69714	-124.87321	-352.94116	1371.35266	-136.38911	-705.72748	1224.79895	-38.49697	-288.17642	1221.39368	0.20253	-491.56403	1142.77686	-119.89090	-505.81003	1299.05261	94.93504	-768.40082	941.58069	-75.35149	-206.35522	980.90515	73.24134	-530.50305	911.88300	211.40732	-133.79724	731.35669	3.57929	-646.62000	830.47107	-82.70153	-366.01715	813.10236	-52.19495	-728.77893	828.41534	-285.07755	-701.73108	422.58716	-70.71162	-289.30688	406.83658	17.95304	-808.24561	108.25813	7.31088	-205.85362	114.60535	157.78831	
604	6.030	-447.20355	1312.16711	-246.46765	-495.38470	1502.35962	-9.96630	-586.76849	1416.77002	-128.01801	-360.60379	1372.13513	-138.69727	-714.08820	1223.34924	-40.30001	-296.29037	1220.52087	-2.88539	-500.14395	1142.64612	-123.08806	-513.64679	1298.51257	91.85284	-776.72223	940.55914	-76.32606	-212.66316	981.72034	70.45272	-538.95679	909.95398	206.82062	-141.50267	730.96368	1.63410	-654.27216	829.87903	-87.74165	-373.25015	812.92151	-56.94554	-742.34808	823.67975	-284.45520	-707.81799	422.86060	-75.38725	-295.77484	405.98734	12.32913	-810.44714	105.71080	6.67634	-206.38040	116.31680	157.95245	
605	6.040	-454.52200	1313.57568	-249.89944	-503.48135	1502.61841	-12.81468	-594.54077	1417.83020	-130.90495	-368.13293	1372.35046	-140.01746	-723.19067	1222.59644	-41.91608	-304.06848	1220.77661	-5.60587	-509.33301	1142.77661	-127.18552	-521.96490	1298.41821	88.76080	-785.20630	939.75854	-76.45943	-222.38721	981.26917	68.16023	-547.84680	909.51971	202.74031	-149.64502	730.94452	-1.20501	-661.92175	828.08093	-92.36840	-381.00372	813.46027	-60.39145	-756.14319	818.79956	-283.28680	-714.50726	423.62357	-79.59299	-301.15613	406.87750	10.82718	-811.88257	103.81616	4.93832	-207.27818	118.49682	157.45024	
606	6.050	-461.45581	1315.52930	-252.09308	-511.37869	1502.41418	-13.89161	-602.04315	1419.06860	-133.89053	-375.97427	1373.12256	-143.12936	-731.33545	1222.25781	-44.59876	-312.72147	1221.20740	-10.07098	-518.29980	1142.61487	-130.44841	-530.05548	1298.42529	84.97852	-794.27594	939.02142	-76.70436	-231.45052	980.60254	64.95269	-556.88831	909.56543	198.53418	-158.66124	730.73969	-2.62207	-670.18585	828.17975	-97.08804	-390.18036	813.26447	-62.13527	-770.31134	813.19922	-280.82281	-721.38483	425.82959	-84.70238	-307.58676	407.13428	6.63572	-813.25812	101.33687	4.31857	-208.73108	120.35469	156.63905	
607	6.060	-468.99561	1317.12231	-255.49881	-519.19934	1502.89038	-16.33688	-609.92609	1420.16003	-136.70830	-383.84702	1373.80200	-144.45815	-739.32239	1222.06006	-46.57414	-319.99139	1221.22327	-12.55970	-526.74274	1142.74475	-133.93475	-537.70294	1298.11169	81.11268	-802.75482	938.24249	-76.60127	-243.19832	979.08063	61.59174	-565.56500	910.32605	194.06126	-167.16231	730.98846	-4.61523	-679.41632	828.22205	-101.12546	-399.00055	813.95398	-65.53096	-785.27197	808.95813	-279.87912	-728.34845	427.50021	-88.88409	-314.53418	407.25107	3.40367	-815.00909	100.42150	2.41839	-209.81612	122.71959	155.65392	
608	6.070	-476.49792	1319.22339	-258.82016	-527.39166	1502.90857	-18.44469	-617.69244	1421.24023	-139.84767	-391.18399	1375.75879	-147.07509	-747.33698	1222.25769	-48.96611	-327.55969	1221.49939	-16.11595	-535.18982	1143.53357	-138.16473	-545.14502	1298.25525	77.72915	-811.56885	938.55292	-78.07678	-253.25423	979.43909	59.82198	-573.48193	910.52460	189.85416	-175.98314	731.19360	-6.10652	-686.39429	828.30487	-106.34131	-408.74655	814.20465	-67.96151	-799.66656	804.06842	-277.28958	-734.26691	428.08246	-92.45303	-323.62689	407.77106	0.76849	-816.93445	98.81325	3.05948	-211.07660	126.43573	155.06461	
609	6.080	-483.70627	1320.89636	-262.58786	-535.61047	1503.52612	-21.13939	-625.38635	1422.23816	-142.93369	-399.23557	1376.85681	-150.74521	-755.08038	1222.33142	-51.92613	-335.26801	1221.87646	-19.43415	-543.36310	1144.31702	-141.46193	-552.25085	1298.98730	74.86927	-820.00360	938.99701	-78.89047	-261.87851	980.08209	57.20632	-581.41174	910.69641	185.80499	-185.52173	731.37720	-6.97362				-416.84995	815.88062	-72.10650	-813.43713	798.62024	-273.45996	-740.96417	429.20892	-95.91228	-331.56079	408.27628	-2.37120	-818.07898	98.26949	1.93011	-214.29308	127.93536	152.62714	
